<?xml version="1.0" standalone="no"?>
<!DOCTYPE svg PUBLIC "-//W3C//DTD SVG 20010904//EN"
 "http://www.w3.org/TR/2001/REC-SVG-20010904/DTD/svg10.dtd">
<svg version="1.0" xmlns="http://www.w3.org/2000/svg"
 width="1124.000000pt" height="1124.000000pt" viewBox="0 0 1124.000000 1124.000000"
 preserveAspectRatio="xMidYMid meet">
<metadata>
Created by potrace 1.11, written by Peter Selinger 2001-2013
</metadata>
<g transform="translate(0.000000,1124.000000) scale(0.100000,-0.100000)"
fill="#000000" stroke="none">
<path d="M4535 8624 c-16 -2 -70 -9 -120 -15 -347 -44 -718 -204 -1006 -437
-108 -87 -293 -283 -369 -390 -130 -184 -232 -384 -295 -582 -28 -90 -77 -302
-70 -308 2 -3 82 6 177 19 l173 23 2577 6 c1417 3 2579 8 2583 11 9 9 -130
132 -228 203 -104 74 -296 168 -412 201 -283 81 -584 79 -848 -5 l-88 -28 -27
61 c-123 288 -326 563 -564 763 -288 242 -615 391 -1003 459 -85 16 -414 28
-480 19z"/>
<path d="M3120 6904 c-19 -2 -89 -8 -155 -14 -183 -17 -257 -28 -420 -66 -290
-67 -542 -166 -774 -304 -258 -153 -435 -310 -652 -582 -26 -32 -89 -134 -89
-143 0 -3 1671 -6 3713 -7 l3712 -3 96 -32 c148 -49 253 -132 311 -248 22 -43
48 -166 48 -226 0 -56 -23 -156 -47 -204 -66 -130 -245 -249 -452 -301 -215
-54 -214 -54 -1097 -54 l-821 0 -109 -132 c-60 -73 -118 -144 -129 -159 -11
-14 -54 -67 -95 -116 -41 -49 -109 -131 -150 -182 -41 -51 -104 -127 -139
-170 -34 -42 -70 -85 -80 -96 -9 -11 -44 -54 -78 -96 -35 -42 -63 -79 -63 -82
0 -4 476 -8 1057 -9 l1057 -3 109 -130 c59 -71 160 -191 223 -265 62 -74 182
-216 265 -315 83 -99 198 -237 257 -307 l107 -127 889 -1 888 0 -34 38 c-19
20 -66 69 -104 107 -38 39 -325 331 -639 648 -313 318 -574 587 -579 597 -15
33 0 50 43 50 70 0 194 20 286 47 271 78 480 256 618 528 49 96 119 302 136
400 46 259 62 523 42 685 -67 541 -394 904 -1006 1116 -71 25 -157 51 -190 58
-229 52 -324 68 -504 86 -201 20 -255 20 -2810 18 -1433 0 -2622 -3 -2641 -4z"/>
<path d="M1072 5641 l-62 -118 68 -6 c37 -4 372 -7 744 -7 l676 0 -87 -87
c-133 -134 -228 -282 -274 -428 -49 -155 -58 -385 -22 -550 41 -188 201 -417
391 -560 186 -140 346 -201 629 -236 59 -8 437 -14 1098 -18 l1008 -6 -28 -36
c-34 -45 -296 -365 -378 -464 -33 -39 -107 -130 -165 -200 -58 -71 -128 -156
-156 -190 -27 -33 -58 -72 -68 -87 l-18 -28 2091 0 2092 0 -117 138 c-64 75
-144 170 -178 211 -33 41 -128 153 -209 250 -82 97 -197 233 -255 303 l-107
127 -1083 0 -1084 1 34 43 c18 23 77 96 131 162 54 66 122 149 152 185 29 36
99 122 156 191 57 69 138 167 179 218 41 51 115 140 163 199 l89 107 891 5
892 6 115 31 c371 100 532 284 491 559 -16 106 -49 173 -118 242 -74 73 -138
107 -259 138 l-97 24 -3632 0 -3632 0 -61 -119z"/>
<path d="M892 5483 c-32 -6 -46 -33 -80 -154 -111 -392 -110 -843 3 -1186 73
-220 189 -439 338 -637 119 -158 362 -385 537 -503 351 -235 817 -400 1285
-454 160 -19 261 -23 630 -27 242 -2 499 -1 572 3 l132 7 98 120 c54 66 134
164 178 217 44 53 114 139 155 190 41 51 102 126 135 165 141 170 268 325 281
345 l15 21 -613 1 c-983 2 -1189 6 -1363 23 -196 20 -242 29 -370 68 -173 52
-333 156 -481 309 -92 96 -142 166 -194 270 -58 115 -79 206 -86 374 -6 125
-4 153 19 261 40 193 121 347 261 502 36 40 66 76 66 80 0 7 -1478 12 -1518 5z"/>
<path d="M10262 4957 c-120 -626 -483 -975 -1061 -1019 -34 -3 -30 -8 332
-373 l367 -370 53 58 c190 212 347 528 407 822 45 214 50 479 15 680 -17 98
-73 313 -84 319 -3 2 -16 -51 -29 -117z"/>
</g>
</svg>
