<?xml version="1.0" standalone="no"?>
<!DOCTYPE svg PUBLIC "-//W3C//DTD SVG 20010904//EN"
 "http://www.w3.org/TR/2001/REC-SVG-20010904/DTD/svg10.dtd">
<svg version="1.0" xmlns="http://www.w3.org/2000/svg"
 width="1124.000000pt" height="1124.000000pt" viewBox="0 0 1124.000000 1124.000000"
 preserveAspectRatio="xMidYMid meet">
<metadata>
Created by potrace 1.11, written by Peter Selinger 2001-2013
</metadata>
<g transform="translate(0.000000,1124.000000) scale(0.100000,-0.100000)"
fill="#000000" stroke="none">
<path d="M2685 8129 c-481 -37 -899 -146 -1280 -334 -449 -221 -792 -521
-1029 -899 -31 -49 -56 -95 -56 -102 0 -12 705 -14 4248 -16 l4247 -3 70 -24
c226 -76 353 -208 385 -402 55 -327 -154 -544 -625 -650 -99 -23 -108 -23
-1091 -28 l-992 -6 -518 -630 -517 -630 1236 -3 1235 -2 553 -655 552 -655
1069 0 c598 0 1068 4 1068 9 0 4 -360 372 -799 817 l-799 809 111 13 c552 62
926 410 1082 1007 60 228 78 384 79 675 1 280 -7 344 -65 533 -204 666 -924
1087 -2012 1176 -156 13 -5984 13 -6152 0z"/>
<path d="M215 6520 c-54 -22 -77 -70 -125 -260 -64 -252 -75 -340 -75 -635 0
-289 6 -346 61 -560 76 -297 249 -630 471 -905 206 -257 504 -498 824 -669
281 -150 682 -284 1019 -340 290 -49 370 -54 940 -58 300 -3 604 -2 675 2
l130 7 526 642 527 641 -937 7 c-1171 8 -1339 12 -1511 37 -250 37 -379 76
-520 160 -290 173 -511 443 -582 710 -28 109 -35 335 -14 463 41 250 157 460
370 667 53 51 96 95 96 97 0 8 -1856 2 -1875 -6z"/>
</g>
</svg>
