<?xml version="1.0" standalone="no"?>
<!DOCTYPE svg PUBLIC "-//W3C//DTD SVG 20010904//EN"
 "http://www.w3.org/TR/2001/REC-SVG-20010904/DTD/svg10.dtd">
<svg version="1.0" xmlns="http://www.w3.org/2000/svg"
 width="1124.000000pt" height="1124.000000pt" viewBox="0 0 1124.000000 1124.000000"
 preserveAspectRatio="xMidYMid meet">
<metadata>
Created by potrace 1.11, written by Peter Selinger 2001-2013
</metadata>
<g transform="translate(0.000000,1124.000000) scale(0.100000,-0.100000)"
fill="#000000" stroke="none">
<path d="M5495 6900 c-2310 -5 -2519 -7 -2625 -23 -392 -59 -638 -131 -925
-272 -247 -122 -498 -303 -657 -474 -76 -82 -208 -253 -233 -301 l-16 -30
3650 0 c2538 0 3673 -3 3726 -11 289 -40 464 -194 496 -437 30 -225 -74 -399
-303 -511 -57 -28 -138 -60 -181 -71 -198 -50 -197 -50 -1089 -50 l-836 0 -81
-97 c-118 -144 -436 -532 -604 -738 -81 -99 -147 -183 -147 -187 0 -5 465 -8
1034 -8 569 0 1041 -3 1050 -6 9 -3 141 -155 293 -337 153 -182 321 -381 373
-442 52 -61 144 -171 205 -243 l110 -132 877 0 c483 0 878 3 878 6 0 6 -212
222 -1022 1039 -186 188 -338 348 -338 357 0 30 29 48 78 48 80 0 223 27 316
59 362 125 604 443 700 921 49 244 59 620 21 795 -111 509 -482 848 -1128
1029 -281 79 -680 129 -987 124 -69 -2 -1254 -5 -2635 -8z"/>
<path d="M885 5468 c-11 -6 -23 -16 -28 -22 -15 -22 -50 -154 -78 -291 -95
-465 -46 -876 152 -1274 118 -239 231 -394 428 -592 204 -203 385 -330 654
-459 340 -162 678 -251 1112 -291 99 -10 293 -13 655 -12 l515 2 28 33 c16 18
157 191 315 383 157 193 340 415 405 495 l120 145 -969 6 c-1019 6 -1030 6
-1254 54 -239 50 -419 152 -600 342 -144 150 -231 302 -267 467 -23 103 -22
336 1 446 38 179 135 364 265 502 33 36 61 68 61 72 0 12 -1494 6 -1515 -6z"/>
</g>
</svg>
