<?xml version="1.0" standalone="no"?>
<!DOCTYPE svg PUBLIC "-//W3C//DTD SVG 20010904//EN"
 "http://www.w3.org/TR/2001/REC-SVG-20010904/DTD/svg10.dtd">
<svg version="1.0" xmlns="http://www.w3.org/2000/svg"
 width="1124.000000pt" height="1124.000000pt" viewBox="0 0 1124.000000 1124.000000"
 preserveAspectRatio="xMidYMid meet">
<metadata>
Created by potrace 1.11, written by Peter Selinger 2001-2013
</metadata>
<g transform="translate(0.000000,1124.000000) scale(0.100000,-0.100000)"
fill="#000000" stroke="none">
<path d="M2867 8134 c-1 -1 -54 -4 -117 -8 -202 -11 -448 -42 -598 -77 -26 -6
-57 -13 -70 -15 -13 -3 -92 -24 -175 -49 -547 -158 -1019 -455 -1353 -850 -95
-113 -224 -307 -224 -338 0 -9 952 -12 4223 -12 l4222 0 83 -23 c204 -55 335
-160 391 -313 51 -137 44 -300 -16 -411 -88 -161 -283 -276 -583 -343 -3 -1
-32 -5 -65 -10 -33 -5 -63 -10 -67 -11 -5 -1 -444 -2 -977 -3 l-969 -1 -128
-157 c-71 -87 -131 -160 -134 -163 -3 -3 -56 -67 -117 -142 -62 -75 -119 -145
-127 -155 -8 -10 -130 -157 -270 -328 l-254 -310 1227 -3 1228 -2 144 -171
c181 -216 184 -220 299 -355 52 -61 102 -120 110 -130 16 -20 287 -341 324
-384 12 -14 68 -80 124 -147 l103 -123 1065 0 c585 0 1064 2 1064 5 0 3 -41
47 -91 98 -50 51 -371 375 -713 721 -341 345 -656 663 -699 705 -105 102 -109
110 -55 109 211 -6 520 102 692 242 236 192 390 451 476 801 15 64 33 152 40
195 6 43 13 90 15 104 9 50 19 258 19 375 0 158 -11 269 -38 385 -82 350 -278
628 -603 853 -45 32 -269 157 -280 157 -2 0 -29 12 -60 26 -231 105 -642 204
-993 239 -30 3 -75 8 -100 12 -38 5 -5967 12 -5973 7z"/>
<path d="M207 6508 c-42 -21 -65 -68 -102 -207 -69 -267 -90 -419 -90 -676 0
-199 7 -283 36 -426 58 -291 166 -550 344 -819 418 -635 1063 -1039 1940
-1215 17 -3 59 -10 95 -16 36 -5 76 -12 89 -14 14 -2 54 -7 90 -10 36 -4 77
-8 91 -10 97 -16 280 -20 814 -19 l609 1 31 38 c17 21 76 93 131 159 55 67
125 153 156 191 31 39 210 257 398 485 l341 415 -52 2 c-29 2 -532 4 -1118 6
-586 2 -1078 7 -1095 10 -16 3 -60 8 -96 11 -91 8 -292 44 -342 61 -23 8 -48
15 -56 15 -7 0 -56 20 -107 44 -259 123 -499 355 -623 604 -17 34 -28 62 -25
62 4 0 2 6 -4 13 -28 33 -54 195 -56 348 -5 326 108 592 361 848 62 63 113
115 113 115 0 1 -414 1 -920 1 -855 1 -922 -1 -953 -17z"/>
</g>
</svg>
